<svg width="17" height="11" viewBox="0 0 17 11" fill="none" xmlns="http://www.w3.org/2000/svg">
<path d="M8.87188 10.6556C5.16996 10.6556 2.13935 7.45001 1.00808 6.07189C0.656451 5.63116 0.656451 5.02468 1.00246 4.59047C2.13935 3.20555 5.17085 0 8.87188 0C12.5747 0 15.6047 3.20555 16.7354 4.58366C17.087 5.02409 17.0873 5.63057 16.7416 6.06508C15.6044 7.45001 12.5729 10.6556 8.87188 10.6556ZM8.87188 1.18395C5.58642 1.18395 2.72244 4.36108 1.92298 5.33488C2.72244 6.29447 5.58583 9.4716 8.87188 9.4716C12.1573 9.4716 15.0213 6.29447 15.8208 5.32067C15.0213 4.36108 12.1588 1.18395 8.87188 1.18395Z" fill="#97989C"/>
<path d="M8.87214 7.99159C7.40345 7.99159 6.20825 6.79669 6.20825 5.32771C6.20825 3.85902 7.40345 2.66382 8.87214 2.66382C10.3411 2.66382 11.536 3.85902 11.536 5.32771C11.536 6.79669 10.3411 7.99159 8.87214 7.99159ZM8.87214 3.84777C8.0561 3.84777 7.3922 4.51167 7.3922 5.32771C7.3922 6.14374 8.0561 6.80764 8.87214 6.80764C9.68818 6.80764 10.3521 6.14374 10.3521 5.32771C10.3521 4.51167 9.68818 3.84777 8.87214 3.84777Z" fill="#97989C"/>
</svg>
