<svg width="70" height="27" viewBox="0 0 70 27" fill="none" xmlns="http://www.w3.org/2000/svg">
<path d="M58.4298 27C57.8954 27 57.3939 26.9574 56.9254 26.8723C56.4635 26.7937 56.0808 26.6921 55.7773 26.5677L56.7275 23.443C57.2223 23.5937 57.6677 23.6756 58.0636 23.6887C58.4661 23.7018 58.8125 23.6101 59.1029 23.4136C59.3998 23.2171 59.6406 22.883 59.8254 22.4113L60.0728 21.7727L54.6193 6.24783H59.0534L62.2008 17.3314H62.3591L65.5362 6.24783H70L64.0912 22.9714C63.8075 23.7837 63.4215 24.4911 62.9332 25.0938C62.4515 25.703 61.8412 26.1714 61.1022 26.4989C60.3631 26.833 59.4724 27 58.4298 27Z" fill="#070707"/>
<path d="M43.9596 21.3404V6.24793H48.0472V8.88126H48.2056C48.4827 7.94453 48.9479 7.23707 49.6012 6.75888C50.2544 6.27413 51.0066 6.03176 51.8578 6.03176C52.0689 6.03176 52.2966 6.04487 52.5407 6.07107C52.7848 6.09727 52.9993 6.1333 53.184 6.17915V9.89332C52.9861 9.83436 52.7123 9.78196 52.3625 9.7361C52.0128 9.69025 51.6928 9.66732 51.4025 9.66732C50.7822 9.66732 50.228 9.80161 49.7397 10.0702C49.258 10.3322 48.8753 10.699 48.5916 11.1707C48.3145 11.6423 48.1759 12.186 48.1759 12.8018V21.3404H43.9596Z" fill="#070707"/>
<path d="M32.1271 21.6255C31.1571 21.6255 30.2928 21.4584 29.5339 21.1243C28.7751 20.7837 28.1747 20.2826 27.7326 19.621C27.2971 18.9528 27.0794 18.1209 27.0794 17.1252C27.0794 16.2867 27.2344 15.5826 27.5446 15.0127C27.8547 14.4428 28.277 13.9842 28.8114 13.637C29.3459 13.2899 29.9529 13.0278 30.6326 12.851C31.3188 12.6741 32.038 12.5497 32.7902 12.4776C33.6744 12.3859 34.387 12.3007 34.9281 12.2221C35.4691 12.137 35.8617 12.0125 36.1059 11.8487C36.35 11.685 36.4721 11.4426 36.4721 11.1216V11.0627C36.4721 10.4404 36.2741 9.95891 35.8782 9.61828C35.4889 9.27765 34.9347 9.10734 34.2155 9.10734C33.4567 9.10734 32.8529 9.27438 32.4042 9.60846C31.9555 9.93598 31.6586 10.3487 31.5134 10.8465L27.6138 10.5321C27.8118 9.61501 28.2011 8.82239 28.7817 8.15423C29.3624 7.47952 30.1113 6.96203 31.0285 6.60175C31.9522 6.23492 33.0212 6.0515 34.2353 6.0515C35.0798 6.0515 35.8881 6.14976 36.6601 6.34628C37.4387 6.5428 38.1283 6.8474 38.7287 7.26008C39.3358 7.67277 39.8141 8.20336 40.1638 8.85187C40.5136 9.49382 40.6884 10.2635 40.6884 11.1609V21.3405H36.6898V19.2476H36.5711C36.3269 19.7192 36.0003 20.1352 35.5912 20.4955C35.1821 20.8492 34.6905 21.1276 34.1165 21.3307C33.5424 21.5272 32.8793 21.6255 32.1271 21.6255ZM33.3346 18.7367C33.9548 18.7367 34.5025 18.6155 34.9776 18.3731C35.4526 18.1242 35.8254 17.7901 36.096 17.3709C36.3665 16.9516 36.5018 16.4767 36.5018 15.9461V14.3445C36.3698 14.4297 36.1884 14.5083 35.9574 14.5803C35.7331 14.6458 35.479 14.7081 35.1953 14.767C34.9116 14.8194 34.6279 14.8686 34.3441 14.9144C34.0604 14.9537 33.8031 14.9897 33.5721 15.0225C33.0772 15.0945 32.6451 15.2092 32.2756 15.3664C31.906 15.5236 31.619 15.7365 31.4145 16.0051C31.2099 16.2671 31.1077 16.5946 31.1077 16.9877C31.1077 17.5576 31.3155 17.9932 31.7312 18.2945C32.1535 18.5893 32.6879 18.7367 33.3346 18.7367Z" fill="#070707"/>
<path d="M20.1982 21.3405V6.24804H24.4146V21.3405H20.1982Z" fill="#070707"/>
<path d="M7.18558 21.3405H0V1.21721H7.24496C9.28384 1.21721 11.039 1.62007 12.5104 2.42579C13.9819 3.22496 15.1135 4.37458 15.9053 5.87466C16.7037 7.37473 17.1029 9.16959 17.1029 11.2592C17.1029 13.3554 16.7037 15.1568 15.9053 16.6634C15.1135 18.1701 13.9753 19.3262 12.4906 20.1319C11.0126 20.9377 9.24425 21.3405 7.18558 21.3405ZM4.28561 17.6951H7.00742C8.2743 17.6951 9.33993 17.4724 10.2043 17.027C11.0753 16.575 11.7285 15.8774 12.164 14.9341C12.6061 13.9842 12.8271 12.7593 12.8271 11.2592C12.8271 9.77224 12.6061 8.55711 12.164 7.61383C11.7285 6.67055 11.0786 5.97619 10.2142 5.53075C9.34983 5.08531 8.2842 4.86259 7.01732 4.86259H4.28561V17.6951Z" fill="#070707"/>
<path d="M20.2054 0H24.4209V4.18502H20.2054V0Z" fill="#BE3B3B"/>
</svg>
